<svg xmlns="http://www.w3.org/2000/svg" width="158" height="23"><g fill="none" fill-rule="evenodd"><path fill="#FFF" d="M0 14.136v-.043c0-4.19 3.183-7.741 7.658-7.741 2.227 0 3.712.534 5.069 1.519.255.192.53.556.53 1.068 0 .707-.572 1.305-1.293 1.305-.34 0-.594-.149-.806-.3-.955-.705-1.994-1.175-3.606-1.175-2.736 0-4.815 2.416-4.815 5.282v.042c0 3.08 2.015 5.346 5.048 5.346 1.4 0 2.673-.449 3.585-1.134v-2.8H8.442c-.636 0-1.166-.492-1.166-1.134 0-.641.53-1.155 1.166-1.155h4.137c.742 0 1.315.578 1.315 1.327v3.999c0 .748-.297 1.283-.912 1.667A9.4 9.4 0 0 1 7.7 21.834C3.054 21.834 0 18.5 0 14.136m15.88-6.893c0-.71.597-1.288 1.376-1.288.782 0 1.402.579 1.402 1.288v13.303c0 .73-.62 1.288-1.402 1.288-.756 0-1.377-.557-1.377-1.288V7.243zm14.113 8.887v-.042c0-1.943-1.417-3.551-3.426-3.551-2.053 0-3.364 1.587-3.364 3.51v.04c0 1.923 1.417 3.532 3.406 3.532 2.073 0 3.384-1.588 3.384-3.489m-9.35 0v-.042c0-3.155 2.538-5.766 5.966-5.766 3.427 0 5.944 2.569 5.944 5.724v.042c0 3.135-2.538 5.746-5.986 5.746-3.407 0-5.924-2.57-5.924-5.704m18.125 5.704h-.125c-.694 0-1.156-.445-1.451-1.122l-3.698-8.528c-.064-.19-.147-.402-.147-.635 0-.635.567-1.227 1.26-1.227.693 0 1.051.401 1.261.931l2.859 7.405 2.9-7.448c.19-.444.526-.888 1.198-.888.693 0 1.24.529 1.24 1.227 0 .233-.084.487-.147.614l-3.699 8.55c-.294.655-.757 1.121-1.45 1.121m15.44-5.704v-.042c0-1.943-1.417-3.551-3.427-3.551-2.051 0-3.363 1.587-3.363 3.51v.04c0 1.923 1.417 3.532 3.406 3.532 2.073 0 3.384-1.588 3.384-3.489m-9.35 0v-.042c0-3.155 2.539-5.766 5.966-5.766s5.944 2.569 5.944 5.724v.042c0 3.135-2.538 5.746-5.987 5.746-3.405 0-5.923-2.57-5.923-5.704"/><path d="M154.85 6.695l-.144.198-1.974 2.75-1.972-2.746-.144-.199a2.537 2.537 0 0 1-.495-1.502c0-1.422 1.17-2.578 2.61-2.578s2.611 1.156 2.611 2.578a2.53 2.53 0 0 1-.493 1.5m-2.117-6.58c-2.838 0-5.145 2.28-5.145 5.08a5 5 0 0 0 .97 2.96l.137.189 2.679 3.731s.326.528 1.039.528h.639c.714 0 1.039-.528 1.039-.528l2.68-3.731.135-.189c.635-.87.97-1.894.97-2.96 0-2.8-2.307-5.08-5.143-5.08m-1.18 14.768v-.01c0-.74.579-1.354 1.362-1.354.783 0 1.357.604 1.357 1.345v.01c0 .736-.58 1.35-1.366 1.35a1.33 1.33 0 0 1-1.352-1.34" fill="#FFC244"/><path fill="#FFF" d="M65.309 19.987c2.085 0 3.384-.959 3.384-2.552v-.04c0-1.552-1.26-2.45-3.66-2.45h-4.348v5.042h4.624zm-.551-6.472c1.869 0 3.167-.877 3.167-2.551v-.041c0-1.41-1.082-2.327-3.05-2.327h-4.19v4.919h4.073zM59.15 7.963c0-.45.354-.817.767-.817h5.095c1.574 0 2.814.47 3.6 1.265.572.613.886 1.368.886 2.287v.04c0 1.859-1.102 2.818-2.183 3.309 1.632.51 2.95 1.49 2.95 3.45v.04c0 2.45-1.986 3.9-4.997 3.9h-5.351c-.413 0-.767-.367-.767-.817V7.963zm23.819 13.33c0 .437-.31.812-.736.812-.407 0-.736-.354-.736-.813v-1.168c-.677 1.168-1.704 2.107-3.428 2.107-2.42 0-3.834-1.752-3.834-4.317v-5.985c0-.459.31-.813.736-.813.407 0 .755.354.755.813v5.59c0 2 1.008 3.252 2.77 3.252 1.703 0 3-1.356 3-3.379V11.93c0-.459.311-.813.737-.813.406 0 .736.354.736.813v9.363zm3.853-.41a.73.73 0 0 1-.28-.58c0-.373.3-.685.68-.685.14 0 .28.042.38.124 1.06.748 2.16 1.142 3.28 1.142 1.24 0 2.14-.664 2.14-1.701v-.042c0-1.078-1.22-1.493-2.58-1.886-1.62-.477-3.42-1.058-3.42-3.028v-.042c0-1.846 1.48-3.07 3.52-3.07 1.1 0 2.3.354 3.3.914.2.124.38.352.38.663 0 .373-.3.685-.68.685a.75.75 0 0 1-.34-.084c-.88-.518-1.82-.829-2.7-.829-1.22 0-2 .663-2 1.555v.042c0 1.016 1.28 1.41 2.66 1.845 1.6.498 3.32 1.141 3.32 3.07v.041c0 2.032-1.62 3.214-3.68 3.214-1.36 0-2.86-.519-3.98-1.347m10.988-9.334c0-.425.371-.79.83-.79.478 0 .85.344.85.79v9.097c0 .445-.35.79-.83.79-.479 0-.85-.345-.85-.79V11.55zm-.153-3.97c0-.507.437-.831.982-.831.567 0 1.003.324 1.003.83v.264c0 .486-.436.83-1.003.83-.545 0-.982-.344-.982-.83v-.264zm5.955 4.078c0-.438.344-.814.768-.814.444 0 .788.354.788.814v1.168c.686-1.168 1.777-2.107 3.575-2.107 2.525 0 4 1.752 4 4.317v5.985c0 .458-.344.813-.768.813-.444 0-.788-.355-.788-.813v-5.59c0-2.001-1.05-3.252-2.889-3.252-1.797 0-3.13 1.355-3.13 3.378v5.464c0 .458-.323.813-.768.813-.444 0-.788-.355-.788-.813v-9.363zm20.665 4.021c-.162-1.935-1.26-3.623-3.355-3.623-1.83 0-3.214 1.545-3.417 3.623h6.772zm-3.112 6.155c-2.887 0-5.246-2.244-5.246-5.537v-.041c0-3.067 2.135-5.537 5.043-5.537 3.112 0 4.881 2.573 4.881 5.392a.734.734 0 0 1-.732.741h-7.606c.224 2.306 1.83 3.602 3.701 3.602 1.302 0 2.258-.514 3.03-1.234a.683.683 0 0 1 .448-.185c.386 0 .691.308.691.678a.69.69 0 0 1-.243.515c-.997.967-2.176 1.606-3.967 1.606zm7.738-.95a.73.73 0 0 1-.28-.581c0-.373.3-.685.68-.685.14 0 .28.042.38.124 1.06.748 2.16 1.142 3.28 1.142 1.239 0 2.14-.664 2.14-1.701v-.042c0-1.078-1.22-1.493-2.58-1.886-1.62-.477-3.42-1.058-3.42-3.028v-.042c0-1.846 1.48-3.07 3.519-3.07 1.1 0 2.3.354 3.3.914.2.124.38.352.38.663 0 .373-.3.685-.68.685a.75.75 0 0 1-.34-.084c-.88-.518-1.82-.829-2.7-.829-1.22 0-2 .663-2 1.555v.042c0 1.016 1.28 1.41 2.66 1.845 1.6.498 3.32 1.141 3.32 3.07v.041c0 2.032-1.62 3.214-3.68 3.214-1.36 0-2.86-.519-3.98-1.347m10.322 0a.73.73 0 0 1-.28-.581c0-.373.3-.685.68-.685.14 0 .28.042.38.124 1.06.748 2.16 1.142 3.28 1.142 1.24 0 2.14-.664 2.14-1.701v-.042c0-1.078-1.22-1.493-2.58-1.886-1.62-.477-3.42-1.058-3.42-3.028v-.042c0-1.846 1.48-3.07 3.52-3.07 1.1 0 2.3.354 3.3.914.2.124.38.352.38.663 0 .373-.3.685-.68.685a.75.75 0 0 1-.34-.084c-.88-.518-1.82-.829-2.7-.829-1.22 0-2 .663-2 1.555v.042c0 1.016 1.28 1.41 2.66 1.845 1.6.498 3.32 1.141 3.32 3.07v.041c0 2.032-1.62 3.214-3.68 3.214-1.36 0-2.86-.519-3.98-1.347"/></g></svg>